HIERARCHY
ROOT root
{
	OFFSET	0	13.1	24.9
	CHANNELS 6  Xposition Yposition Zposition Xrotation Yrotation Zrotation
	JOINT spine_1
	{
		OFFSET	0	9.99999	0
		CHANNELS 3  Xrotation Yrotation Zrotation
		JOINT spine_2
		{
			OFFSET	0	112	-10
			CHANNELS 3  Xrotation Yrotation Zrotation
			JOINT spine_3
			{
				OFFSET	0	206.5	19.3
				CHANNELS 3  Xrotation Yrotation Zrotation
				JOINT spine_4
				{
					OFFSET	0	110.4	14.6
					CHANNELS 3  Xrotation Yrotation Zrotation
					JOINT neck_1
					{
						OFFSET	0	71.8	-50.3
						CHANNELS 3  Xrotation Yrotation Zrotation
						JOINT neck_2
						{
							OFFSET	0	86.2	-25.8
							CHANNELS 3  Xrotation Yrotation Zrotation
							JOINT head_ee
							{
								OFFSET	0	179.8	-8.7
								CHANNELS 3  Xrotation Yrotation Zrotation
								End Site
								{
									OFFSET	1	0	0
								}
							}
						}
					}
					JOINT left_clavicle
					{
						OFFSET	-43.2	22.4	-70.8
						CHANNELS 3  Xrotation Yrotation Zrotation
						JOINT left_shoulder
						{
							OFFSET	-93.9	-5.79999	48.7
							CHANNELS 3  Xrotation Yrotation Zrotation
							JOINT left_elbow
							{
								OFFSET	-291.4	-30.8	15.2
								CHANNELS 3  Xrotation Yrotation Zrotation
								JOINT left_lowarm_twist
								{
									OFFSET	-110.7	-3.89999	13.6
									CHANNELS 3  Xrotation Yrotation Zrotation
									JOINT left_hand
									{
										OFFSET	-110.7	-3.89999	13.6
										CHANNELS 3  Xrotation Yrotation Zrotation
										JOINT left_ee
										{
											OFFSET	-80.8	-5.10001	12.1
											CHANNELS 3  Xrotation Yrotation Zrotation
											End Site
											{
												OFFSET	1	0	0
											}
										}
									}
								}
							}
						}
					}
					JOINT right_clavicle
					{
						OFFSET	43.2	22.4	-70.8
						CHANNELS 3  Xrotation Yrotation Zrotation
						JOINT right_shoulder
						{
							OFFSET	93.9	-5.79999	48.7
							CHANNELS 3  Xrotation Yrotation Zrotation
							JOINT right_elbow
							{
								OFFSET	291.4	-30.8	15.2
								CHANNELS 3  Xrotation Yrotation Zrotation
								JOINT right_lowarm_twist
								{
									OFFSET	110.7	-3.89999	13.6
									CHANNELS 3  Xrotation Yrotation Zrotation
									JOINT right_hand
									{
										OFFSET	110.7	-3.89999	13.6
										CHANNELS 3  Xrotation Yrotation Zrotation
										JOINT right_ee
										{
											OFFSET	80.8	-5.10001	12.1
											CHANNELS 3  Xrotation Yrotation Zrotation
											End Site
											{
												OFFSET	1	0	0
											}
										}
									}
								}
							}
						}
					}
				}
			}
		}
	}
	JOINT left_hip
	{
		OFFSET	-82.8	-127.5	0.300001
		CHANNELS 3  Xrotation Yrotation Zrotation
		JOINT left_knee
		{
			OFFSET	-28.2	-396.7	2.2
			CHANNELS 3  Xrotation Yrotation Zrotation
			JOINT left_ankle
			{
				OFFSET	-11.7	-411.3	35.4
				CHANNELS 3  Xrotation Yrotation Zrotation
				JOINT left_toes
				{
					OFFSET	0	-60	-88.6
					CHANNELS 3  Xrotation Yrotation Zrotation
					JOINT left_foot_ee
					{
						OFFSET	-22.5	-16.5	-42.2
						CHANNELS 3  Xrotation Yrotation Zrotation
						End Site
						{
							OFFSET	1	0	0
						}
					}
				}
			}
		}
	}
	JOINT right_hip
	{
		OFFSET	82.8	-127.5	0.300001
		CHANNELS 3  Xrotation Yrotation Zrotation
		JOINT right_knee
		{
			OFFSET	28.2	-396.7	2.2
			CHANNELS 3  Xrotation Yrotation Zrotation
			JOINT right_ankle
			{
				OFFSET	11.7	-411.3	35.4
				CHANNELS 3  Xrotation Yrotation Zrotation
				JOINT right_toes
				{
					OFFSET	0	-60	-88.6
					CHANNELS 3  Xrotation Yrotation Zrotation
					JOINT right_foot_ee
					{
						OFFSET	22.5	-16.5	-42.2
						CHANNELS 3  Xrotation Yrotation Zrotation
						End Site
						{
							OFFSET	1	0	0
						}
					}
				}
			}
		}
	}
}
MOTION
Frames: 8
Frame Time: 0.02
3110.41 679.737 -1498.7 7.03328 74.9968 -6.56574 -2.47871 0.265342 0.0553983 -2.47874 0.261279 0.0721706 -2.47844 0.234624 0.135745 -2.47837 0.253118 0.0969869 -28.7588 13.9542 4.26565 -30.4088 25.1975 12.424 -0.0 0.0 -0.0 4.7966 23.7982 9.31744 -17.1215 0.696816 67.2566 0.283553 -7.99585 0.0198177 -5.94048 -0.246797 0.717826 0.441143 25.0893 12.5003 -0.0 0.0 -0.0 13.2008 26.8183 -26.042 7.52978 21.5225 -52.4861 2.33325 49.1271 -1.06656 71.7721 2.92629 8.07968 1.60937 -25.2594 -19.4549 0.0 0.0 0.0 29.6435 4.76059 -12.1395 -6.55562 0.213873 0.982816 -13.0901 -11.4275 2.08645 6.49791 -0.0 -0.0 -0.0 0.0 -0.0 -15.2853 -5.15593 9.45281 -20.4264 -0.290325 -3.10458 34.2273 26.7253 5.11206 -9.82073 0.0 0.0 0.0 0.0 0.0 
3095.28 683.826 -1492.93 4.80341 74.3824 -4.03537 -2.5278 0.280089 0.103507 -2.52784 0.272935 0.121121 -2.52727 0.233397 0.186251 -2.52722 0.259883 0.147053 -27.5765 13.2937 4.61802 -28.9239 23.7859 11.9805 -0.0 0.0 -0.0 5.20609 23.6693 9.89299 -15.041 0.256734 66.5999 0.268308 -7.57109 0.0177531 -5.64902 -0.232958 0.683221 0.594415 26.2592 13.7707 -0.0 0.0 -0.0 13.1903 26.6897 -26.0337 6.39177 20.806 -52.5392 2.33202 49.1122 -1.06564 71.015 2.84636 8.02445 1.06375 -25.1086 -16.1501 0.0 0.0 0.0 30.2496 5.02804 -12.3635 -9.33545 0.270353 1.40561 -11.1643 -9.72043 1.75703 8.71463 -0.0 -0.0 -0.0 0.0 -0.0 -15.2586 -3.88387 9.99407 -20.6289 -0.287632 -3.13552 31.7531 23.4644 4.67035 -10.5671 0.0 0.0 0.0 0.0 0.0 
3067.65 685.981 -1485.03 1.37667 73.4073 -0.439146 -2.67549 0.25702 0.0639957 -2.67553 0.252427 0.080221 -2.67519 0.223541 0.142071 -2.67514 0.243173 0.104984 -26.1685 13.8718 4.97409 -27.5085 24.7006 12.2885 -0.0 0.0 -0.0 5.28523 23.8185 9.99676 -14.1568 -0.201582 66.9961 0.331384 -9.32261 0.0270194 -5.51455 -0.226633 0.667233 0.7037 27.0471 14.648 -0.0 0.0 -0.0 13.3768 26.6648 -26.4685 5.75961 20.3802 -52.629 2.2165 47.6678 -0.979261 70.2335 2.76464 7.96634 1.01385 -24.5014 -15.6695 0.0 0.0 0.0 30.5263 5.0557 -11.9095 -10.9204 0.29335 1.64771 -9.59526 -7.02255 1.48519 8.78682 -0.0 -0.0 -0.0 0.0 -0.0 -15.1559 -2.27468 10.9341 -21.8972 -0.268275 -3.32917 30.8763 22.6317 4.53335 -10.8126 0.0 0.0 0.0 0.0 0.0 
3043.61 688.319 -1481.01 3.44545 73.3453 -2.72275 -2.65118 0.110732 0.109039 -2.65118 0.103569 0.115865 -2.65096 0.0705754 0.138457 -2.65098 0.0915563 0.125573 -24.7553 13.4216 5.52965 -25.8306 23.5268 12.1342 -0.0 0.0 -0.0 5.35999 23.3629 10.123 -12.3698 -0.713036 66.8562 0.318939 -8.97831 0.0250404 -5.82972 -0.241517 0.704683 0.763352 27.8189 15.2265 -0.0 0.0 -0.0 13.3255 26.7068 -26.3445 4.07414 20.2566 -53.3261 2.13041 46.5366 -0.916187 69.7952 2.71915 7.93327 0.596599 -26.8062 -13.9587 0.0 0.0 0.0 30.3525 5.25627 -11.9531 -15.2912 0.321996 2.31757 -8.04549 -9.15407 1.25632 11.0861 -0.0 -0.0 -0.0 0.0 -0.0 -15.221 -1.04328 11.4639 -22.3739 -0.259891 -3.40183 31.4168 19.0843 4.45443 -11.7934 0.0 0.0 0.0 0.0 0.0 
3023.27 691.449 -1474.67 3.11755 72.6407 -2.42335 -2.82483 0.166879 0.175511 -2.82483 0.155373 0.185774 -2.82429 0.102163 0.21958 -2.82433 0.135559 0.20069 -25.3965 13.4032 6.21936 -26.462 23.2568 12.9106 -0.0 0.0 -0.0 5.5339 23.7814 10.346 -10.3839 -1.28214 66.5766 0.401111 -11.2384 0.0394653 -5.77399 -0.23887 0.698067 0.804878 28.4612 15.6559 -0.0 0.0 -0.0 13.3404 26.5831 -26.3943 3.42407 19.6347 -53.3648 1.98658 44.5357 -0.813524 69.4543 2.68394 7.9073 0.412333 -27.6036 -13.1693 0.0 0.0 0.0 30.2275 6.37215 -11.3644 -18.7594 0.308338 2.84944 -2.68802 -5.66489 0.40818 12.8613 -0.0 -0.0 -0.0 0.0 -0.0 -14.2863 0.893637 12.5629 -23.4478 -0.23879 -3.56528 31.1711 17.0265 4.35718 -12.4126 0.0 0.0 0.0 0.0 0.0 
2995.28 693.777 -1467.71 4.06144 72.5268 -3.03941 -2.80504 -0.00162721 0.124463 -2.80503 -0.00954379 0.124107 -2.80504 -0.0412123 0.117453 -2.80506 -0.0221456 0.122488 -23.809 13.7489 6.97384 -24.7497 23.4602 13.3611 -0.0 0.0 -0.0 5.46934 23.751 10.2573 -8.70047 -1.69847 66.509 0.459924 -12.835 0.0517312 -6.09783 -0.254342 0.736479 0.798909 28.9663 15.7723 -0.0 0.0 -0.0 13.3949 26.4681 -26.535 0.86683 18.4268 -54.086 1.87329 42.8561 -0.735247 68.781 2.61487 7.85541 0.150139 -26.8359 -11.431 0.0 0.0 0.0 29.6093 6.58325 -11.4943 -21.625 0.272789 3.28766 -2.78562 -7.77678 0.427364 12.7978 -0.0 -0.0 -0.0 0.0 -0.0 -14.426 2.67574 13.3065 -23.4959 -0.237773 -3.57259 30.4646 13.479 4.17726 -13.3082 0.0 0.0 0.0 0.0 0.0 
2968.74 694.639 -1463.92 6.47665 72.7111 -6.20529 -2.8335 -0.0878234 0.175054 -2.83349 -0.0987845 0.169111 -2.83378 -0.139107 0.137863 -2.83379 -0.115589 0.158102 -24.3865 13.3318 6.9264 -25.2973 22.7366 13.2367 -0.0 0.0 -0.0 6.20553 23.4518 11.3133 -7.11579 -2.48197 64.5289 0.505292 -14.053 0.0622796 -6.11203 -0.255025 0.738161 0.764603 28.1891 15.3459 -0.0 0.0 -0.0 13.427 26.4574 -26.6107 -0.755561 17.656 -54.8382 1.67511 39.6826 -0.604478 68.9712 2.63432 7.87016 0.0331921 -27.2183 -10.9062 0.0 0.0 0.0 27.787 7.55467 -9.8672 -24.9944 0.203025 3.79992 6.2498 -5.79884 -0.926405 14.7391 -0.0 -0.0 -0.0 0.0 -0.0 -14.2908 7.55954 14.6317 -31.5824 0.0197875 -4.78587 33.7549 5.81437 4.36343 -12.6309 0.0 0.0 0.0 0.0 0.0 
2945.34 692.602 -1462.17 9.06562 72.5325 -8.70818 -2.88229 -0.061727 0.288836 -2.88224 -0.0799812 0.284322 -2.88261 -0.150913 0.253893 -2.88269 -0.108922 0.27454 -25.4183 13.6194 6.14301 -26.5382 23.7048 12.9768 -0.0 0.0 -0.0 6.28853 22.5328 11.4988 -5.7112 -3.20089 63.7331 0.540499 -14.9894 0.0711076 -5.10728 -0.207705 0.618721 0.200463 27.5815 11.9699 -0.0 0.0 -0.0 13.04 26.4357 -25.7175 -1.2505 17.1664 -56.4362 1.43385 35.3836 -0.457395 69.0721 2.64465 7.87794 -0.240554 -29.1352 -10.0758 0.0 0.0 0.0 23.5644 8.32091 -8.43164 -22.5755 0.256164 3.43255 14.5967 -4.44183 -2.08515 13.4997 -0.0 -0.0 -0.0 0.0 -0.0 -13.9514 11.3499 14.0914 -37.3102 0.304574 -5.61804 34.1396 -0.899579 4.32904 -12.4189 0.0 0.0 0.0 0.0 0.0 
